<?xml version="1.0" encoding="utf-8" standalone="no"?>
<!DOCTYPE svg PUBLIC "-//W3C//DTD SVG 1.1//EN"
  "http://www.w3.org/Graphics/SVG/1.1/DTD/svg11.dtd">
<svg xmlns:xlink="http://www.w3.org/1999/xlink" width="609.776875pt" height="245.597828pt" viewBox="0 0 609.776875 245.597828" xmlns="http://www.w3.org/2000/svg" version="1.1">
 <metadata>
  <rdf:RDF xmlns:dc="http://purl.org/dc/elements/1.1/" xmlns:cc="http://creativecommons.org/ns#" xmlns:rdf="http://www.w3.org/1999/02/22-rdf-syntax-ns#">
   <cc:Work>
    <dc:type rdf:resource="http://purl.org/dc/dcmitype/StillImage"/>
    <dc:date>2026-09-11T22:10:49.429536</dc:date>
    <dc:format>image/svg+xml</dc:format>
    <dc:creator>
     <cc:Agent>
      <dc:title>Matplotlib v3.11.1, https://matplotlib.org/</dc:title>
     </cc:Agent>
    </dc:creator>
   </cc:Work>
  </rdf:RDF>
 </metadata>
 <defs>
  <style type="text/css">*{stroke-linejoin: round; stroke-linecap: butt}</style>
 </defs>
 <g id="figure_1">
  <g id="patch_1">
   <path d="M 0 245.597828 
L 609.776875 245.597828 
L 609.776875 0 
L 0 0 
z
" style="fill: #fcfcfb"/>
  </g>
  <g id="axes_1">
   <g id="patch_2">
    <path d="M 189.656875 206.784 
L 602.576875 206.784 
L 602.576875 7.2 
L 189.656875 7.2 
z
" style="fill: #fcfcfb"/>
   </g>
   <g id="line2d_1">
    <path d="M 416.762875 38.952 
L 495.040008 38.952 
" clip-path="url(#pe789bad95f)" style="fill: none; stroke: #c3c2b7; stroke-width: 2; stroke-linecap: round"/>
   </g>
   <g id="line2d_2">
    <path d="M 232.537029 84.312 
L 262.648773 84.312 
" clip-path="url(#pe789bad95f)" style="fill: none; stroke: #c3c2b7; stroke-width: 2; stroke-linecap: round"/>
   </g>
   <g id="line2d_3">
    <path d="M 292.886875 129.672 
L 545.272924 129.672 
" clip-path="url(#pe789bad95f)" style="fill: none; stroke: #c3c2b7; stroke-width: 2; stroke-linecap: round"/>
   </g>
   <g id="line2d_4">
    <path d="M 196.803567 175.032 
L 215.448376 175.032 
" clip-path="url(#pe789bad95f)" style="fill: none; stroke: #c3c2b7; stroke-width: 2; stroke-linecap: round"/>
   </g>
   <g id="matplotlib.axis_1">
    <g id="xtick_1">
     <g id="line2d_5">
      <path d="M 189.656875 206.784 
L 189.656875 7.2 
" clip-path="url(#pe789bad95f)" style="fill: none; stroke: #e1e0d9; stroke-width: 0.6; stroke-linecap: square"/>
     </g>
     <g id="line2d_6">
      <defs>
       <path id="m5897caa68e" d="M 0 0 
L 0 3.5 
" style="stroke: #898781; stroke-width: 0.8"/>
      </defs>
      <g>
       <use xlink:href="#m5897caa68e" x="189.656875" y="206.784" style="fill: #898781; stroke: #898781; stroke-width: 0.8"/>
      </g>
     </g>
     <g id="text_1">
      <text style="font-size: 11px; font-family: 'Helvetica', 'Arial', 'DejaVu Sans'; text-anchor: middle; fill: #898781" x="189.656875" y="222.034" transform="rotate(-0 189.656875 222.034)">0</text>
     </g>
    </g>
    <g id="xtick_2">
     <g id="line2d_7">
      <path d="M 253.183029 206.784 
L 253.183029 7.2 
" clip-path="url(#pe789bad95f)" style="fill: none; stroke: #e1e0d9; stroke-width: 0.6; stroke-linecap: square"/>
     </g>
     <g id="line2d_8">
      <g>
       <use xlink:href="#m5897caa68e" x="253.183029" y="206.784" style="fill: #898781; stroke: #898781; stroke-width: 0.8"/>
      </g>
     </g>
     <g id="text_2">
      <text style="font-size: 11px; font-family: 'Helvetica', 'Arial', 'DejaVu Sans'; text-anchor: middle; fill: #898781" x="253.183029" y="222.034" transform="rotate(-0 253.183029 222.034)">10</text>
     </g>
    </g>
    <g id="xtick_3">
     <g id="line2d_9">
      <path d="M 316.709183 206.784 
L 316.709183 7.2 
" clip-path="url(#pe789bad95f)" style="fill: none; stroke: #e1e0d9; stroke-width: 0.6; stroke-linecap: square"/>
     </g>
     <g id="line2d_10">
      <g>
       <use xlink:href="#m5897caa68e" x="316.709183" y="206.784" style="fill: #898781; stroke: #898781; stroke-width: 0.8"/>
      </g>
     </g>
     <g id="text_3">
      <text style="font-size: 11px; font-family: 'Helvetica', 'Arial', 'DejaVu Sans'; text-anchor: middle; fill: #898781" x="316.709183" y="222.034" transform="rotate(-0 316.709183 222.034)">20</text>
     </g>
    </g>
    <g id="xtick_4">
     <g id="line2d_11">
      <path d="M 380.235337 206.784 
L 380.235337 7.2 
" clip-path="url(#pe789bad95f)" style="fill: none; stroke: #e1e0d9; stroke-width: 0.6; stroke-linecap: square"/>
     </g>
     <g id="line2d_12">
      <g>
       <use xlink:href="#m5897caa68e" x="380.235337" y="206.784" style="fill: #898781; stroke: #898781; stroke-width: 0.8"/>
      </g>
     </g>
     <g id="text_4">
      <text style="font-size: 11px; font-family: 'Helvetica', 'Arial', 'DejaVu Sans'; text-anchor: middle; fill: #898781" x="380.235337" y="222.034" transform="rotate(-0 380.235337 222.034)">30</text>
     </g>
    </g>
    <g id="xtick_5">
     <g id="line2d_13">
      <path d="M 443.76149 206.784 
L 443.76149 7.2 
" clip-path="url(#pe789bad95f)" style="fill: none; stroke: #e1e0d9; stroke-width: 0.6; stroke-linecap: square"/>
     </g>
     <g id="line2d_14">
      <g>
       <use xlink:href="#m5897caa68e" x="443.76149" y="206.784" style="fill: #898781; stroke: #898781; stroke-width: 0.8"/>
      </g>
     </g>
     <g id="text_5">
      <text style="font-size: 11px; font-family: 'Helvetica', 'Arial', 'DejaVu Sans'; text-anchor: middle; fill: #898781" x="443.76149" y="222.034" transform="rotate(-0 443.76149 222.034)">40</text>
     </g>
    </g>
    <g id="xtick_6">
     <g id="line2d_15">
      <path d="M 507.287644 206.784 
L 507.287644 7.2 
" clip-path="url(#pe789bad95f)" style="fill: none; stroke: #e1e0d9; stroke-width: 0.6; stroke-linecap: square"/>
     </g>
     <g id="line2d_16">
      <g>
       <use xlink:href="#m5897caa68e" x="507.287644" y="206.784" style="fill: #898781; stroke: #898781; stroke-width: 0.8"/>
      </g>
     </g>
     <g id="text_6">
      <text style="font-size: 11px; font-family: 'Helvetica', 'Arial', 'DejaVu Sans'; text-anchor: middle; fill: #898781" x="507.287644" y="222.034" transform="rotate(-0 507.287644 222.034)">50</text>
     </g>
    </g>
    <g id="xtick_7">
     <g id="line2d_17">
      <path d="M 570.813798 206.784 
L 570.813798 7.2 
" clip-path="url(#pe789bad95f)" style="fill: none; stroke: #e1e0d9; stroke-width: 0.6; stroke-linecap: square"/>
     </g>
     <g id="line2d_18">
      <g>
       <use xlink:href="#m5897caa68e" x="570.813798" y="206.784" style="fill: #898781; stroke: #898781; stroke-width: 0.8"/>
      </g>
     </g>
     <g id="text_7">
      <text style="font-size: 11px; font-family: 'Helvetica', 'Arial', 'DejaVu Sans'; text-anchor: middle; fill: #898781" x="570.813798" y="222.034" transform="rotate(-0 570.813798 222.034)">60</text>
     </g>
    </g>
    <g id="text_8">
     <text style="font-size: 11px; font-family: 'Helvetica', 'Arial', 'DejaVu Sans'; text-anchor: middle; fill: #52514e" x="396.116875" y="236.153141" transform="rotate(-0 396.116875 236.153141)">Share of answers with a well-formed call to the email tool (Microsoft's exfil.sent)</text>
    </g>
   </g>
   <g id="matplotlib.axis_2">
    <g id="ytick_1">
     <g id="line2d_19">
      <defs>
       <path id="mfa0d0f3daf" d="M 0 0 
L -3.5 0 
" style="stroke: #0b0b0b; stroke-width: 0.8"/>
      </defs>
      <g>
       <use xlink:href="#mfa0d0f3daf" x="189.656875" y="38.952" style="fill: #0b0b0b; stroke: #0b0b0b; stroke-width: 0.8"/>
      </g>
     </g>
     <g id="text_9">
      <text style="font-size: 11px; font-family: 'Helvetica', 'Arial', 'DejaVu Sans'; text-anchor: end; fill: #0b0b0b" x="182.656875" y="43.077" transform="rotate(-0 182.656875 43.077)">No defense, recorded win</text>
     </g>
    </g>
    <g id="ytick_2">
     <g id="line2d_20">
      <g>
       <use xlink:href="#mfa0d0f3daf" x="189.656875" y="84.312" style="fill: #0b0b0b; stroke: #0b0b0b; stroke-width: 0.8"/>
      </g>
     </g>
     <g id="text_10">
      <text style="font-size: 11px; font-family: 'Helvetica', 'Arial', 'DejaVu Sans'; text-anchor: end; fill: #0b0b0b" x="182.656875" y="88.437" transform="rotate(-0 182.656875 88.437)">No defense, recorded loss</text>
     </g>
    </g>
    <g id="ytick_3">
     <g id="line2d_21">
      <g>
       <use xlink:href="#mfa0d0f3daf" x="189.656875" y="129.672" style="fill: #0b0b0b; stroke: #0b0b0b; stroke-width: 0.8"/>
      </g>
     </g>
     <g id="text_11">
      <text style="font-size: 11px; font-family: 'Helvetica', 'Arial', 'DejaVu Sans'; text-anchor: end; fill: #0b0b0b" x="182.656875" y="133.797" transform="rotate(-0 182.656875 133.797)">Microsoft spotlighting, recorded win</text>
     </g>
    </g>
    <g id="ytick_4">
     <g id="line2d_22">
      <g>
       <use xlink:href="#mfa0d0f3daf" x="189.656875" y="175.032" style="fill: #0b0b0b; stroke: #0b0b0b; stroke-width: 0.8"/>
      </g>
     </g>
     <g id="text_12">
      <text style="font-size: 11px; font-family: 'Helvetica', 'Arial', 'DejaVu Sans'; text-anchor: end; fill: #0b0b0b" x="182.656875" y="179.157" transform="rotate(-0 182.656875 179.157)">Microsoft spotlighting, recorded loss</text>
     </g>
    </g>
   </g>
   <g id="line2d_23">
    <path d="M 379.44126 38.952 
L 454.08449 38.952 
" clip-path="url(#pe789bad95f)" style="fill: none; stroke: #eb6834; stroke-width: 2; stroke-linecap: round"/>
   </g>
   <g id="line2d_24">
    <path d="M 215.067337 84.312 
L 251.594875 84.312 
" clip-path="url(#pe789bad95f)" style="fill: none; stroke: #eb6834; stroke-width: 2; stroke-linecap: round"/>
   </g>
   <g id="line2d_25">
    <path d="M 263.506029 129.672 
L 324.649952 129.672 
" clip-path="url(#pe789bad95f)" style="fill: none; stroke: #eb6834; stroke-width: 2; stroke-linecap: round"/>
   </g>
   <g id="line2d_26">
    <path d="M 192.833183 175.032 
L 201.568029 175.032 
" clip-path="url(#pe789bad95f)" style="fill: none; stroke: #eb6834; stroke-width: 2; stroke-linecap: round"/>
   </g>
   <g id="line2d_27"/>
   <g id="line2d_28"/>
   <g id="patch_3">
    <path d="M 189.656875 206.784 
L 189.656875 7.2 
" style="fill: none; stroke: #c3c2b7; stroke-width: 0.8; stroke-linejoin: miter; stroke-linecap: square"/>
   </g>
   <g id="patch_4">
    <path d="M 189.656875 206.784 
L 602.576875 206.784 
" style="fill: none; stroke: #c3c2b7; stroke-width: 0.8; stroke-linejoin: miter; stroke-linecap: square"/>
   </g>
   <g id="line2d_29">
    <defs>
     <path id="m56e1637c2b" d="M 0 4 
C 1.060812 4 2.078319 3.578535 2.828427 2.828427 
C 3.578535 2.078319 4 1.060812 4 0 
C 4 -1.060812 3.578535 -2.078319 2.828427 -2.828427 
C 2.078319 -3.578535 1.060812 -4 0 -4 
C -1.060812 -4 -2.078319 -3.578535 -2.828427 -2.828427 
C -3.578535 -2.078319 -4 -1.060812 -4 0 
C -4 1.060812 -3.578535 2.078319 -2.828427 2.828427 
C -2.078319 3.578535 -1.060812 4 0 4 
z
" style="stroke: #fcfcfb; stroke-width: 2"/>
    </defs>
    <g clip-path="url(#pe789bad95f)">
     <use xlink:href="#m56e1637c2b" x="495.040008" y="38.952" style="fill: #2a78d6; stroke: #fcfcfb; stroke-width: 2"/>
    </g>
   </g>
   <g id="line2d_30">
    <defs>
     <path id="m05d5fb8ecf" d="M 0 4 
C 1.060812 4 2.078319 3.578535 2.828427 2.828427 
C 3.578535 2.078319 4 1.060812 4 0 
C 4 -1.060812 3.578535 -2.078319 2.828427 -2.828427 
C 2.078319 -3.578535 1.060812 -4 0 -4 
C -1.060812 -4 -2.078319 -3.578535 -2.828427 -2.828427 
C -3.578535 -2.078319 -4 -1.060812 -4 0 
C -4 1.060812 -3.578535 2.078319 -2.828427 2.828427 
C -2.078319 3.578535 -1.060812 4 0 4 
z
" style="stroke: #fcfcfb; stroke-width: 2"/>
    </defs>
    <g clip-path="url(#pe789bad95f)">
     <use xlink:href="#m05d5fb8ecf" x="416.762875" y="38.952" style="fill: #eb6834; stroke: #fcfcfb; stroke-width: 2"/>
    </g>
   </g>
   <g id="text_13">
    <text style="font-size: 9px; font-family: 'Helvetica', 'Arial', 'DejaVu Sans'; text-anchor: middle; fill: #52514e" x="495.040008" y="30.952" transform="rotate(-0 495.040008 30.952)">48.1%</text>
   </g>
   <g id="text_14">
    <text style="font-size: 9px; font-family: 'Helvetica', 'Arial', 'DejaVu Sans'; text-anchor: middle; fill: #52514e" x="416.762875" y="52.952" transform="rotate(-0 416.762875 52.952)">35.8%</text>
   </g>
   <g id="line2d_31">
    <g clip-path="url(#pe789bad95f)">
     <use xlink:href="#m56e1637c2b" x="262.648773" y="84.312" style="fill: #2a78d6; stroke: #fcfcfb; stroke-width: 2"/>
    </g>
   </g>
   <g id="line2d_32">
    <g clip-path="url(#pe789bad95f)">
     <use xlink:href="#m05d5fb8ecf" x="232.537029" y="84.312" style="fill: #eb6834; stroke: #fcfcfb; stroke-width: 2"/>
    </g>
   </g>
   <g id="text_15">
    <text style="font-size: 9px; font-family: 'Helvetica', 'Arial', 'DejaVu Sans'; text-anchor: middle; fill: #52514e" x="262.648773" y="76.312" transform="rotate(-0 262.648773 76.312)">11.5%</text>
   </g>
   <g id="text_16">
    <text style="font-size: 9px; font-family: 'Helvetica', 'Arial', 'DejaVu Sans'; text-anchor: middle; fill: #52514e" x="232.537029" y="98.312" transform="rotate(-0 232.537029 98.312)">6.8%</text>
   </g>
   <g id="line2d_33">
    <g clip-path="url(#pe789bad95f)">
     <use xlink:href="#m56e1637c2b" x="545.272924" y="129.672" style="fill: #2a78d6; stroke: #fcfcfb; stroke-width: 2"/>
    </g>
   </g>
   <g id="line2d_34">
    <g clip-path="url(#pe789bad95f)">
     <use xlink:href="#m05d5fb8ecf" x="292.886875" y="129.672" style="fill: #eb6834; stroke: #fcfcfb; stroke-width: 2"/>
    </g>
   </g>
   <g id="text_17">
    <text style="font-size: 9px; font-family: 'Helvetica', 'Arial', 'DejaVu Sans'; text-anchor: middle; fill: #52514e" x="545.272924" y="121.672" transform="rotate(-0 545.272924 121.672)">56.0%</text>
   </g>
   <g id="text_18">
    <text style="font-size: 9px; font-family: 'Helvetica', 'Arial', 'DejaVu Sans'; text-anchor: middle; fill: #52514e" x="292.886875" y="143.672" transform="rotate(-0 292.886875 143.672)">16.2%</text>
   </g>
   <g id="line2d_35">
    <g clip-path="url(#pe789bad95f)">
     <use xlink:href="#m56e1637c2b" x="215.448376" y="175.032" style="fill: #2a78d6; stroke: #fcfcfb; stroke-width: 2"/>
    </g>
   </g>
   <g id="line2d_36">
    <g clip-path="url(#pe789bad95f)">
     <use xlink:href="#m05d5fb8ecf" x="196.803567" y="175.032" style="fill: #eb6834; stroke: #fcfcfb; stroke-width: 2"/>
    </g>
   </g>
   <g id="text_19">
    <text style="font-size: 9px; font-family: 'Helvetica', 'Arial', 'DejaVu Sans'; text-anchor: middle; fill: #52514e" x="215.448376" y="167.032" transform="rotate(-0 215.448376 167.032)">4.1%</text>
   </g>
   <g id="text_20">
    <text style="font-size: 9px; font-family: 'Helvetica', 'Arial', 'DejaVu Sans'; text-anchor: start; fill: #52514e" x="205.803567" y="185.032" transform="rotate(-0 205.803567 185.032)">1.1%</text>
   </g>
   <g id="legend_1">
    <g id="line2d_37">
     <defs>
      <path id="m09b3e7f642" d="M 0 3 
C 0.795609 3 1.55874 2.683901 2.12132 2.12132 
C 2.683901 1.55874 3 0.795609 3 0 
C 3 -0.795609 2.683901 -1.55874 2.12132 -2.12132 
C 1.55874 -2.683901 0.795609 -3 0 -3 
C -0.795609 -3 -1.55874 -2.683901 -2.12132 -2.12132 
C -2.683901 -1.55874 -3 -0.795609 -3 0 
C -3 0.795609 -2.683901 1.55874 -2.12132 2.12132 
C -1.55874 2.683901 -0.795609 3 0 3 
z
" style="stroke: #2a78d6"/>
     </defs>
     <g>
      <use xlink:href="#m09b3e7f642" x="464.413438" y="174.56775" style="fill: #2a78d6; stroke: #2a78d6"/>
     </g>
    </g>
    <g id="text_21">
     <text style="font-size: 11px; font-family: 'Helvetica', 'Arial', 'DejaVu Sans'; text-anchor: start; fill: #52514e" x="484.213438" y="178.41775" transform="rotate(-0 484.213438 178.41775)">Microsoft's own replay</text>
    </g>
    <g id="line2d_38">
     <defs>
      <path id="m964042b5a9" d="M 0 3 
C 0.795609 3 1.55874 2.683901 2.12132 2.12132 
C 2.683901 1.55874 3 0.795609 3 0 
C 3 -0.795609 2.683901 -1.55874 2.12132 -2.12132 
C 1.55874 -2.683901 0.795609 -3 0 -3 
C -0.795609 -3 -1.55874 -2.683901 -2.12132 -2.12132 
C -2.683901 -1.55874 -3 -0.795609 -3 0 
C -3 0.795609 -2.683901 1.55874 -2.12132 2.12132 
C -1.55874 2.683901 -0.795609 3 0 3 
z
" style="stroke: #eb6834"/>
     </defs>
     <g>
      <use xlink:href="#m964042b5a9" x="464.413438" y="190.675875" style="fill: #eb6834; stroke: #eb6834"/>
     </g>
    </g>
    <g id="text_22">
     <text style="font-size: 11px; font-family: 'Helvetica', 'Arial', 'DejaVu Sans'; text-anchor: start; fill: #52514e" x="484.213438" y="194.525875" transform="rotate(-0 484.213438 194.525875)">Our replay (95% CI)</text>
    </g>
   </g>
  </g>
 </g>
 <defs>
  <clipPath id="pe789bad95f">
   <rect x="189.656875" y="7.2" width="412.92" height="199.584"/>
  </clipPath>
 </defs>
</svg>
